HIERARCHY
ROOT hip
{
	OFFSET 0.00000 0.00000 0.00000
	CHANNELS 6 Xposition Yposition Zposition Zrotation Yrotation Xrotation 
	JOINT lhipjoint
	{
		OFFSET 0 0 0
		CHANNELS 3 Zrotation Yrotation Xrotation
		JOINT lfemur
		{
			OFFSET 1.38280 -1.96574 0.54427
			CHANNELS 3 Zrotation Yrotation Xrotation
			JOINT ltibia
			{
				OFFSET 2.72096 -7.47578 0.00000
				CHANNELS 3 Zrotation Yrotation Xrotation
				JOINT lfoot
				{
					OFFSET 2.73041 -7.50176 0.00000
					CHANNELS 3 Zrotation Yrotation Xrotation
					JOINT ltoes
					{
						OFFSET 0.16150 -0.44371 2.18031
						CHANNELS 3 Zrotation Yrotation Xrotation
						End Site
						{
							OFFSET 0.00000 -0.00000 1.12127
						}
					}
				}
			}
		}
	}
	JOINT rhipjoint
	{
		OFFSET 0 0 0
		CHANNELS 3 Zrotation Yrotation Xrotation
		JOINT rfemur
		{
			OFFSET -1.57224 -1.96575 0.54427
			CHANNELS 3 Zrotation Yrotation Xrotation
			JOINT rtibia
			{
				OFFSET -2.95935 -8.13076 0.00000
				CHANNELS 3 Zrotation Yrotation Xrotation
				JOINT rfoot
				{
					OFFSET -2.52345 -6.93311 0.00000
					CHANNELS 3 Zrotation Yrotation Xrotation
					JOINT rtoes
					{
						OFFSET -0.04475 -0.10171 1.86688
						CHANNELS 3 Zrotation Yrotation Xrotation
						End Site
						{
							OFFSET -0.00000 -0.00000 0.95157
						}
					}
				}
			}
		}
	}
	JOINT lowerback
	{
		OFFSET 0 0 0
		CHANNELS 3 Zrotation Yrotation Xrotation
		JOINT upperback
		{
			OFFSET 0.00669 2.07367 0.09104
			CHANNELS 3 Zrotation Yrotation Xrotation
			JOINT thorax
			{
				OFFSET -0.00664 2.06198 -0.04732
				CHANNELS 3 Zrotation Yrotation Xrotation
				JOINT lowerneck
				{
					OFFSET 0 0 0
					CHANNELS 3 Zrotation Yrotation Xrotation
					JOINT upperneck
					{
						OFFSET -0.00021 1.49948 0.16345
						CHANNELS 3 Zrotation Yrotation Xrotation
						JOINT head
						{
							OFFSET 0.06080 1.50567 -0.26702
							CHANNELS 3 Zrotation Yrotation Xrotation
							End Site
							{
								OFFSET 0.01726 1.56470 -0.11854
							}
						}
					}
				}
				JOINT lclavicle
				{
					OFFSET 0 0 0
					CHANNELS 3 Zrotation Yrotation Xrotation
					JOINT lhumerus
					{
						OFFSET 3.14993 0.82932 -0.22488
						CHANNELS 3 Zrotation Yrotation Xrotation
						JOINT lradius
						{
							OFFSET 5.68236 -0.00000 -0.00000
							CHANNELS 3 Zrotation Yrotation Xrotation
							JOINT lwrist
							{
								OFFSET 3.17112 -0.00000 0.00000
								CHANNELS 3 Zrotation Yrotation Xrotation
								JOINT lhand
								{
									OFFSET 0 0 0
									CHANNELS 3 Zrotation Yrotation Xrotation
									JOINT lfingers
									{
										OFFSET 0.63269 -0.00000 0.00000
										CHANNELS 3 Zrotation Yrotation Xrotation
										End Site
										{
											OFFSET 0.51009 -0.00000 0.00000
										}
									}
								}
								JOINT lthumb
								{
									OFFSET 0 0 0
									CHANNELS 3 Zrotation Yrotation Xrotation
									End Site
									{
										OFFSET 0.51788 -0.00000 0.51788
									}
								}
							}
						}
					}
				}
				JOINT rclavicle
				{
					OFFSET 0 0 0
					CHANNELS 3 Zrotation Yrotation Xrotation
					JOINT rhumerus
					{
						OFFSET -3.10571 0.91279 -0.33334
						CHANNELS 3 Zrotation Yrotation Xrotation
						JOINT rradius
						{
							OFFSET -5.87120 -0.00000 -0.00000
							CHANNELS 3 Zrotation Yrotation Xrotation
							JOINT rwrist
							{
								OFFSET -3.37589 -0.00000 0.00000
								CHANNELS 3 Zrotation Yrotation Xrotation
								JOINT rhand
								{
									OFFSET 0 0 0
									CHANNELS 3 Zrotation Yrotation Xrotation
									JOINT rfingers
									{
										OFFSET -0.60326 -0.00000 0.00000
										CHANNELS 3 Zrotation Yrotation Xrotation
										End Site
										{
											OFFSET -0.48636 -0.00000 0.00000
										}
									}
								}
								JOINT rthumb
								{
									OFFSET 0 0 0
									CHANNELS 3 Zrotation Yrotation Xrotation
									End Site
									{
										OFFSET -0.49379 -0.00000 0.49379
									}
								}
							}
						}
					}
				}
			}
		}
	}
}
MOTION
Frames: 10
Frame Time: 0.033333
-10.9712 18.3726 0.9406 -5.7295 76.2319 3.9438 0.0000 -0.0000 0.0000 -19.4305 -6.6973 -9.0525 1.8256 8.4930 24.2218 2.1921 -5.7222 -26.8008 0.7257 -5.4430 -15.1766 0.0000 -0.0000 0.0000 21.7116 11.4800 -20.4536 -2.6545 -10.1135 29.3450 0.2057 8.0207 3.3482 -6.2398 -14.6567 45.9365 -1.1155 -0.5815 -7.3547 1.3009 -0.7435 2.8168 1.8934 -0.4453 7.1187 -3.7528 -1.7841 -17.6789 3.4838 -2.1310 22.9614 1.5821 -0.8190 10.3489 0.0000 -0.0000 0.0000 -85.4069 -1.8718 27.8430 17.4554 -27.4542 -4.2952 -0.0000 0.0000 -11.4532 15.1657 32.6953 8.3297 -7.1250 0.0000 -0.0000 -20.6779 62.4278 -8.9620 0.0000 -0.0000 0.0000 91.1798 0.4881 -4.6052 -17.1687 27.0796 -4.1638 0.0000 0.0000 19.3862 -28.0303 30.6356 -15.1786 7.1250 -0.0000 -0.0000 1.8579 3.8635 1.9799
-10.9294 18.3734 0.9849 -4.8575 76.3438 4.8041 0.0000 -0.0000 0.0000 -19.5042 -5.9165 -9.4851 1.8888 8.6305 24.6462 2.0810 -5.9024 -26.0623 0.8626 -5.9225 -16.5597 0.0000 -0.0000 0.0000 21.6124 11.3287 -20.3383 -2.6706 -10.1418 29.4370 0.2257 8.3943 3.3784 -6.1531 -14.5751 45.5931 -1.1371 -0.5880 -7.3343 1.3412 -0.7526 2.7416 1.9468 -0.4506 7.0282 -3.7597 -1.7864 -17.5964 3.3228 -2.0928 22.8182 1.5299 -0.8233 10.2781 0.0000 -0.0000 0.0000 -85.5742 -1.4728 27.8086 17.5670 -27.5992 -4.3468 -0.0000 0.0000 -11.5910 15.1046 32.9023 8.3410 -7.1250 0.0000 -0.0000 -20.9304 62.6033 -9.1632 0.0000 -0.0000 0.0000 91.4461 0.5885 -5.4388 -16.5146 26.2134 -3.8705 0.0000 0.0000 19.3905 -28.5619 30.6150 -15.4946 7.1250 -0.0000 -0.0000 1.5526 3.9791 1.6572
-10.8907 18.3764 1.0293 -4.2722 76.5105 5.4170 0.0000 -0.0000 0.0000 -19.4681 -5.1590 -10.1154 1.9932 8.8519 25.3330 1.9752 -6.1194 -25.3407 1.0521 -6.5222 -18.3074 0.0000 -0.0000 0.0000 21.5932 11.1813 -20.2154 -2.6686 -10.1382 29.4253 0.2367 8.5922 3.4065 -6.1444 -14.5668 45.5585 -1.1137 -0.5979 -7.3514 1.4106 -0.7723 2.6858 2.0037 -0.4601 6.9804 -3.8225 -1.7962 -17.5146 3.2310 -2.0673 22.6245 1.5095 -0.8303 10.1915 -0.0000 0.0000 0.0000 -85.7397 -1.1234 27.8597 17.6963 -27.7666 -4.4069 -0.0000 0.0000 -11.7688 15.1171 33.0290 8.3763 -7.1250 0.0000 -0.0000 -21.0321 62.7235 -9.2693 -0.0000 0.0000 0.0000 91.6515 0.7110 -6.2224 -15.9194 25.4112 -3.6113 0.0000 0.0000 19.5312 -28.8805 30.5340 -15.6546 7.1250 -0.0000 -0.0000 1.3569 3.9769 1.4481
-10.8523 18.3807 1.0727 -3.7239 76.6977 5.9772 0.0000 -0.0000 0.0000 -19.4235 -4.3715 -10.7670 2.1020 9.0754 26.0314 1.8670 -6.2543 -24.5966 1.2869 -7.1884 -20.2747 0.0000 -0.0000 0.0000 21.5883 11.0223 -20.0892 -2.6713 -10.1429 29.4406 0.2439 8.7207 3.4768 -6.1746 -14.5955 45.6786 -1.0883 -0.6106 -7.3597 1.4964 -0.7968 2.6456 2.0763 -0.4724 6.9447 -3.9085 -1.8046 -17.4354 3.1444 -2.0353 22.4111 1.4956 -0.8356 10.0987 0.0000 -0.0000 0.0000 -85.9425 -0.8634 27.8972 17.7701 -27.8618 -4.4413 -0.0000 0.0000 -11.8729 15.2176 32.9746 8.4217 -7.1250 0.0000 -0.0000 -20.8724 62.6991 -9.1837 0.0000 -0.0000 0.0000 91.7811 0.8000 -6.9375 -15.3510 24.6327 -3.3709 0.0000 0.0000 19.9671 -29.4709 30.5054 -16.0059 7.1250 -0.0000 -0.0000 1.0168 4.1032 1.0871
-10.8146 18.3827 1.1153 -3.1718 76.8936 6.5297 0.0000 -0.0000 0.0000 -19.3796 -3.6882 -11.4283 2.2345 9.3384 26.8596 1.7730 -6.5014 -23.9268 1.4759 -7.6764 -21.7355 0.0000 -0.0000 0.0000 21.5878 10.8631 -19.9542 -2.6730 -10.1458 29.4503 0.2518 8.8604 3.5391 -6.2054 -14.6244 45.8004 -1.0387 -0.6048 -7.3578 1.5530 -0.7972 2.6137 2.1077 -0.4711 6.9098 -3.9256 -1.8250 -17.3608 3.0516 -2.0385 22.1999 1.4634 -0.8516 10.0084 -0.0000 -0.0000 0.0000 -86.0887 -0.6601 27.9969 17.8085 -27.9113 -4.4592 -0.0000 0.0000 -11.9402 15.3075 32.9142 8.4595 -7.1250 0.0000 -0.0000 -20.7195 62.6664 -9.0974 -0.0000 -0.0000 0.0000 91.9461 0.8804 -7.6815 -14.8173 23.8910 -3.1516 0.0000 0.0000 20.4918 -30.0542 30.5081 -16.3696 7.1250 -0.0000 -0.0000 0.6870 4.2637 0.7363
-10.7777 18.3826 1.1567 -2.6528 77.1043 7.0338 0.0000 -0.0000 0.0000 -19.3240 -3.0858 -12.0892 2.3876 9.6307 27.7888 1.6839 -6.8646 -23.2759 1.5755 -7.9194 -22.4694 0.0000 -0.0000 0.0000 21.6001 10.7038 -19.8198 -2.6791 -10.1565 29.4849 0.2616 9.0277 3.5992 -6.2360 -14.6533 45.9219 -0.9600 -0.5817 -7.3347 1.5882 -0.7761 2.5937 2.1032 -0.4576 6.8737 -3.8823 -1.8592 -17.3135 2.9502 -2.0753 22.0047 1.4137 -0.8785 9.9297 0.0000 -0.0000 0.0000 -86.1917 -0.5214 28.1632 17.8130 -27.9170 -4.4613 -0.0000 0.0000 -11.9505 15.3965 32.8475 8.4954 -7.1250 0.0000 -0.0000 -20.5619 62.6276 -9.0062 0.0000 -0.0000 0.0000 92.1182 0.9406 -8.3737 -14.3450 23.2258 -2.9628 0.0000 0.0000 21.0880 -30.5885 30.5309 -16.7147 7.1250 -0.0000 -0.0000 0.3894 4.4350 0.4184
-10.7417 18.3804 1.1971 -2.1815 77.3238 7.4743 0.0000 -0.0000 0.0000 -19.2518 -2.5705 -12.7418 2.5620 9.9497 28.8140 1.5960 -7.3211 -22.6259 1.5649 -7.8941 -22.3928 0.0000 -0.0000 0.0000 21.6287 10.5466 -19.6864 -2.6908 -10.1769 29.5515 0.2751 9.2539 3.6431 -6.2526 -14.6687 45.9871 -0.8612 -0.5519 -7.2819 1.6186 -0.7476 2.5805 2.0834 -0.4393 6.8269 -3.8080 -1.9025 -17.3042 2.8358 -2.1295 21.8458 1.3523 -0.9120 9.8714 -0.0000 -0.0000 0.0000 -86.2814 -0.4023 28.3671 17.8122 -27.9160 -4.4610 -0.0000 0.0000 -11.8986 15.4416 32.8285 8.5168 -7.1250 0.0000 -0.0000 -20.4955 62.6216 -8.9730 -0.0000 -0.0000 0.0000 92.2660 0.9746 -8.9420 -13.9527 22.6670 -2.8099 0.0000 0.0000 21.6302 -30.9840 30.5524 -16.9743 7.1250 -0.0000 -0.0000 0.1704 4.5684 0.1834
-10.7065 18.3766 1.2370 -1.7272 77.5437 7.8901 0.0000 -0.0000 0.0000 -19.1662 -2.1276 -13.4124 2.7607 10.2971 29.9444 1.5069 -7.7882 -21.9664 1.4816 -7.6907 -21.7784 0.0000 -0.0000 0.0000 21.6656 10.3960 -19.5527 -2.7049 -10.2013 29.6312 0.2917 9.5250 3.6582 -6.2529 -14.6690 45.9883 -0.7649 -0.5228 -7.2137 1.6572 -0.7200 2.5746 2.0735 -0.4219 6.7794 -3.7337 -1.9523 -17.3352 2.7094 -2.1888 21.7164 1.2863 -0.9489 9.8311 -0.0000 0.0000 0.0000 -86.3851 -0.2722 28.5838 17.8389 -27.9503 -4.4735 -0.0000 0.0000 -11.7943 15.4317 32.8751 8.5216 -7.1250 0.0000 -0.0000 -20.5480 62.6621 -9.0166 -0.0000 0.0000 0.0000 92.3599 0.9871 -9.3360 -13.6485 22.2300 -2.6937 0.0000 0.0000 22.0503 -31.2227 30.5729 -17.1353 7.1250 -0.0000 -0.0000 0.0399 4.6577 0.0430
-10.6717 18.3729 1.2768 -1.2134 77.7487 8.3714 0.0000 -0.0000 0.0000 -19.0859 -1.7384 -14.1364 2.9846 10.6701 31.1752 1.4211 -8.1110 -21.3279 1.4116 -7.5145 -21.2487 0.0000 -0.0000 0.0000 21.6901 10.2563 -19.4276 -2.7192 -10.2259 29.7116 0.3092 9.8022 3.6570 -6.2456 -14.6622 45.9594 -0.6981 -0.4986 -7.1544 1.7107 -0.6969 2.5738 2.0952 -0.4084 6.7434 -3.6921 -2.0023 -17.3933 2.5807 -2.2380 21.5971 1.2264 -0.9840 9.7995 -0.0000 -0.0000 0.0000 -86.5275 -0.1273 28.7726 17.8970 -28.0250 -4.5007 -0.0000 0.0000 -11.6476 15.3782 32.9560 8.5094 -7.1250 0.0000 -0.0000 -20.6799 62.7233 -9.1069 -0.0000 -0.0000 0.0000 92.3769 0.9785 -9.5391 -13.4224 21.9029 -2.6087 0.0000 0.0000 22.3669 -31.3789 30.6107 -17.2528 7.1250 -0.0000 -0.0000 -0.0404 4.7426 -0.0436
-10.6367 18.3701 1.3167 -0.6035 77.9215 8.9633 0.0000 -0.0000 0.0000 -19.0247 -1.4018 -14.9303 3.2342 11.0648 32.4987 1.3476 -8.1754 -20.7684 1.4205 -7.5371 -21.3168 0.0000 -0.0000 0.0000 21.6914 10.1305 -19.3152 -2.7314 -10.2471 29.7805 0.3260 10.0605 3.6592 -6.2384 -14.6555 45.9313 -0.6655 -0.4721 -7.1191 1.7691 -0.6676 2.5710 2.1421 -0.3935 6.7193 -3.6866 -2.0480 -17.4509 2.4657 -2.2744 21.4765 1.1791 -1.0147 9.7674 0.0000 -0.0000 0.0000 -86.6961 0.0193 28.9204 17.9630 -28.1098 -4.5318 -0.0000 0.0000 -11.4635 15.2662 33.0301 8.4619 -7.1250 0.0000 -0.0000 -20.8699 62.7630 -9.2139 0.0000 -0.0000 0.0000 92.3313 0.9413 -9.5814 -13.2562 21.6615 -2.5471 0.0000 0.0000 22.6304 -31.5352 30.6827 -17.3871 7.1250 -0.0000 -0.0000 -0.1137 4.8642 -0.1230
